<svg width="14" height="10" viewBox="0 0 14 10" fill="none" xmlns="http://www.w3.org/2000/svg">
<path d="M5.61318 4.57353C5.61318 4.57353 6.92918 4.47141 6.92918 2.86388C6.93 1.25553 5.85282 0.470703 4.48906 0.470703H0V9.45706H4.48906C4.48906 9.45706 7.22894 9.54764 7.22894 6.80364C7.22894 6.80364 7.34835 4.57353 5.61318 4.57353ZM1.97812 2.06835H4.48823C4.48823 2.06835 5.09847 2.06835 5.09847 3.00388C5.09847 3.93859 4.73941 4.07447 4.33259 4.07447H1.97812V2.06835ZM4.36141 7.86023H1.97812V5.458H4.48823C4.48823 5.458 5.39741 5.44647 5.39741 6.69164C5.39824 7.74329 4.71882 7.852 4.36141 7.86023ZM10.8829 2.75764C7.56659 2.75764 7.56988 6.20906 7.56988 6.20906C7.56988 6.20906 7.34176 9.64564 10.8829 9.64564C10.8829 9.64564 13.8345 9.82188 13.8345 7.25576H12.3175C12.3175 7.25576 12.3678 8.22259 10.934 8.22259C10.934 8.22259 9.41459 8.32882 9.41459 6.65788H13.8855C13.8855 6.65706 14.3739 2.75764 10.8829 2.75764ZM12.2327 5.458H9.39976C9.39976 5.458 9.58506 4.07447 10.9175 4.07447C12.2484 4.07364 12.2327 5.458 12.2327 5.458ZM12.5852 1.00023H9.02753V2.10788H12.5852V1.00023Z" fill="black"/>
</svg>
