<svg width="14" height="14" viewBox="0 0 14 14" fill="none" xmlns="http://www.w3.org/2000/svg">
<g clip-path="url(#clip0_1_196)">
<path d="M12.25 0H1.75C0.787294 0 0 0.788118 0 1.75V12.25C0 13.2135 0.787294 14 1.75 14H7.06094V8.97976H5.38341V6.79329H7.06094V5.698C7.06094 4.00894 8.30694 2.68635 9.898 2.68635H11.4438V5.15529H10.0611C9.70035 5.15529 9.59247 5.36282 9.59247 5.65024V6.79329H11.4438V8.97976H9.59247V14H12.25C13.2135 14 14 13.2135 14 12.25V1.75C14 0.788118 13.2135 0 12.25 0Z" fill="black"/>
</g>
<defs>
<clipPath id="clip0_1_196">
<rect width="14" height="14" fill="white"/>
</clipPath>
</defs>
</svg>
