<svg width="14" height="14" viewBox="0 0 14 14" fill="none" xmlns="http://www.w3.org/2000/svg">
<path d="M3.17059 1.49635C3.17059 2.32318 2.56035 2.99271 1.55565 2.99271C0.610235 2.99353 0 2.324 0 1.49635C0 0.649765 0.63 0 1.59518 0C2.55953 0 3.15082 0.649765 3.17059 1.49635ZM0.0790588 13.804V4.17447H3.07176V13.8032H0.0790588V13.804Z" fill="black"/>
<path d="M4.86293 7.24709C4.86293 6.04556 4.82423 5.04168 4.7847 4.17533H7.38376L7.52211 5.51439H7.58058C7.97423 4.88356 8.9394 3.95874 10.5535 3.95874C12.5226 3.95792 14 5.27721 14 8.11345V13.804H11.0065V8.46756C11.0065 7.22733 10.5741 6.38074 9.49035 6.38074C8.6627 6.38074 8.17105 6.95145 7.95529 7.50321C7.8754 7.70003 7.85646 7.97592 7.85646 8.25098V13.804H4.86293V7.24709Z" fill="black"/>
</svg>
