<svg width="14" height="14" viewBox="0 0 14 14" fill="none" xmlns="http://www.w3.org/2000/svg">
<path d="M6.52565 4.92882C5.51435 3.13106 4.43306 1.666 4.35318 1.55894C2.72259 2.33059 1.50541 3.83271 1.12576 5.64282C1.27894 5.64612 3.71659 5.67494 6.52565 4.92882ZM7.25365 6.89377C7.33024 6.86906 7.40765 6.846 7.48424 6.82459C7.33765 6.49188 7.17706 6.15918 7.00906 5.82976C3.99824 6.73153 1.10682 6.66647 1.00471 6.66318C1.00306 6.72494 1.00059 6.78671 1.00059 6.84929C1.00059 8.35306 1.56882 9.72341 2.50106 10.7602C2.50024 10.7586 2.49776 10.7545 2.49776 10.7545C2.49776 10.7545 4.09788 7.91494 7.25365 6.89377ZM3.25376 11.4602L3.25459 11.4569C3.21176 11.4232 3.16565 11.3927 3.12282 11.3565C3.20024 11.4191 3.25376 11.4602 3.25376 11.4602ZM5.44765 1.17024C5.44188 1.17188 5.43776 1.17271 5.432 1.17353C5.44106 1.17188 5.44765 1.17106 5.44765 1.17024ZM10.7116 2.45906C9.68224 1.55153 8.33 0.999765 6.84929 0.999765C6.37329 0.999765 5.91294 1.05741 5.47153 1.16447C5.56047 1.28224 6.65741 2.74071 7.658 4.57635C9.86259 3.75035 10.696 2.48376 10.7116 2.45906ZM6.84847 13.6978C3.06682 13.6978 0 10.6309 0 6.84847C0 3.066 3.06682 0 6.84847 0C10.6301 0 13.6969 3.06682 13.6969 6.84847C13.6969 10.6301 10.6309 13.6978 6.84847 13.6978ZM7.84329 7.80624C4.41082 9.002 3.27765 11.4092 3.25459 11.4578C4.24694 12.2335 5.49212 12.6996 6.84847 12.6996C7.658 12.6996 8.43047 12.5333 9.13129 12.236C9.04482 11.7238 8.70471 9.93176 7.882 7.79471C7.86965 7.798 7.85729 7.80212 7.84329 7.80624ZM8.10682 5.44847C8.24435 5.72682 8.37447 6.01094 8.49635 6.29671C8.54 6.39718 8.582 6.49847 8.62235 6.59812C10.6425 6.34447 12.6321 6.77518 12.6964 6.79C12.6824 5.40153 12.1866 4.13 11.3664 3.13353C11.354 3.15165 10.416 4.50553 8.10682 5.44847ZM8.97812 7.52294C9.74647 9.63282 10.0586 11.3507 10.1171 11.6999C11.4298 10.8129 12.3645 9.408 12.6247 7.77659C12.5078 7.73953 10.8698 7.21988 8.97812 7.52294Z" fill="black"/>
</svg>
