<svg width="14" height="12" viewBox="0 0 14 12" fill="none" xmlns="http://www.w3.org/2000/svg">
<path d="M14 1.902C13.4843 2.12989 12.9313 2.28466 12.3503 2.35389C12.943 1.99844 13.3988 1.43533 13.6127 0.765664C13.0589 1.09466 12.4437 1.33344 11.7895 1.46178C11.2653 0.904108 10.5179 0.555664 9.69265 0.555664C8.10676 0.555664 6.82032 1.84055 6.82032 3.42722C6.82032 3.652 6.84521 3.87133 6.89498 4.08211C4.50721 3.96155 2.39087 2.81822 0.974541 1.08144C0.727207 1.50533 0.585652 1.99922 0.585652 2.52422C0.585652 3.52133 1.09276 4.40022 1.86354 4.91511C1.39299 4.90033 0.949652 4.77122 0.562319 4.55655C0.562319 4.56822 0.562319 4.57989 0.562319 4.59233C0.562319 5.98378 1.55243 7.14578 2.8661 7.40866C2.62499 7.474 2.37143 7.509 2.10932 7.509C1.92499 7.509 1.74454 7.49266 1.56954 7.45844C1.93432 8.60022 2.99599 9.43011 4.2521 9.45344C3.26976 10.2234 2.03154 10.6823 0.685985 10.6823C0.45343 10.6823 0.225541 10.6683 0.000762939 10.6411C1.27165 11.457 2.78132 11.9314 4.40376 11.9314C9.68643 11.9314 12.5759 7.55489 12.5759 3.76011C12.5759 3.63489 12.5728 3.51044 12.5665 3.38755C13.1273 2.98466 13.615 2.47833 14 1.902Z" fill="black"/>
</svg>
